<svg width="26" height="26" viewBox="0 0 26 26" fill="none" xmlns="http://www.w3.org/2000/svg">
<path d="M23.8008 19.8575C23.8008 20.2475 23.7141 20.6484 23.53 21.0384C23.3458 21.4284 23.1075 21.7967 22.7933 22.1434C22.2625 22.7284 21.6775 23.1509 21.0166 23.4217C20.3666 23.6925 19.6625 23.8334 18.9041 23.8334C17.7991 23.8334 16.6183 23.5734 15.3725 23.0425C14.1266 22.5117 12.8808 21.7967 11.6458 20.8975C10.4 19.9875 9.21913 18.98 8.09246 17.8642C6.97663 16.7375 5.96913 15.5567 5.06996 14.3217C4.18163 13.0867 3.46663 11.8517 2.94663 10.6275C2.42663 9.39252 2.16663 8.21169 2.16663 7.08502C2.16663 6.34835 2.29663 5.64419 2.55663 4.99419C2.81663 4.33335 3.22829 3.72669 3.80246 3.18502C4.49579 2.50252 5.25413 2.16669 6.05579 2.16669C6.35913 2.16669 6.66246 2.23169 6.93329 2.36169C7.21496 2.49169 7.46413 2.68669 7.65913 2.96835L10.1725 6.51085C10.3675 6.78169 10.5083 7.03085 10.6058 7.26919C10.7033 7.49669 10.7575 7.72419 10.7575 7.93002C10.7575 8.19002 10.6816 8.45002 10.53 8.69919C10.3891 8.94835 10.1833 9.20835 9.92329 9.46835L9.09996 10.3242C8.98079 10.4434 8.92663 10.5842 8.92663 10.7575C8.92663 10.8442 8.93746 10.92 8.95913 11.0067C8.99163 11.0934 9.02413 11.1584 9.04579 11.2234C9.24079 11.5809 9.57663 12.0467 10.0533 12.61C10.5408 13.1734 11.0608 13.7475 11.6241 14.3217C12.2091 14.8959 12.7725 15.4267 13.3466 15.9142C13.91 16.3909 14.3758 16.7159 14.7441 16.9109C14.7983 16.9325 14.8633 16.965 14.9391 16.9975C15.0258 17.03 15.1125 17.0409 15.21 17.0409C15.3941 17.0409 15.535 16.9759 15.6541 16.8567L16.4775 16.0442C16.7483 15.7734 17.0083 15.5675 17.2575 15.4375C17.5066 15.2859 17.7558 15.21 18.0266 15.21C18.2325 15.21 18.4491 15.2534 18.6875 15.3509C18.9258 15.4484 19.175 15.5892 19.4458 15.7734L23.0316 18.3192C23.3133 18.5142 23.5083 18.7417 23.6275 19.0125C23.7358 19.2834 23.8008 19.5542 23.8008 19.8575Z" stroke="#585858" stroke-width="1.5" stroke-miterlimit="10"/>
</svg>
