<svg width="134" height="22" viewBox="0 0 134 22" fill="none" xmlns="http://www.w3.org/2000/svg">
<g id="&#208;&#183;&#208;&#178;&#208;&#181;&#208;&#183;&#208;&#180;&#209;&#139;">
<path id="Vector" d="M22 8.49987L14.0061 7.97432L10.9956 0.411133L7.9851 7.97432L0 8.49987L6.12451 13.7002L4.11477 21.5888L10.9956 17.2395L17.8765 21.5888L15.8668 13.7002L22 8.49987Z" fill="#EC1C24"/>
<path id="Vector_2" d="M50 8.49987L42.0061 7.97432L38.9956 0.411133L35.9851 7.97432L28 8.49987L34.1245 13.7002L32.1148 21.5888L38.9956 17.2395L45.8765 21.5888L43.8668 13.7002L50 8.49987Z" fill="#EC1C24"/>
<path id="Vector_3" d="M78 8.49987L70.0061 7.97432L66.9956 0.411133L63.9851 7.97432L56 8.49987L62.1245 13.7002L60.1148 21.5888L66.9956 17.2395L73.8765 21.5888L71.8668 13.7002L78 8.49987Z" fill="#EC1C24"/>
<path id="Vector_4" d="M106 8.49987L98.0061 7.97432L94.9956 0.411133L91.9851 7.97432L84 8.49987L90.1245 13.7002L88.1148 21.5888L94.9956 17.2395L101.877 21.5888L99.8668 13.7002L106 8.49987Z" fill="#EC1C24"/>
<path id="Vector_5" d="M134 8.49987L126.006 7.97432L122.996 0.411133L119.985 7.97432L112 8.49987L118.125 13.7002L116.115 21.5888L122.996 17.2395L129.877 21.5888L127.867 13.7002L134 8.49987Z" fill="#EC1C24"/>
</g>
</svg>
